<svg width="82" height="17" viewBox="0 0 82 17" fill="none" xmlns="http://www.w3.org/2000/svg">
<path d="M3.60156 0.296875V13.0703H11.4531V16H0.34375V0.296875H3.60156ZM19.9375 3.85938C21.0938 3.85938 22.0859 4.10938 22.9141 4.60938C23.7578 5.10938 24.3984 5.80469 24.8359 6.69531C25.2891 7.57031 25.5156 8.58594 25.5156 9.74219V11.0078H16.9375C17.0938 11.8047 17.4844 12.4453 18.1094 12.9297C18.7344 13.4141 19.5 13.6562 20.4062 13.6562C21.2656 13.6562 22.0469 13.4844 22.75 13.1406C23.4531 12.7969 24.0156 12.4453 24.4375 12.0859L24.4141 14.8516C24.0391 15.1797 23.4766 15.5156 22.7266 15.8594C21.9922 16.1875 21.1797 16.3516 20.2891 16.3516C19.1172 16.3516 18.0469 16.0859 17.0781 15.5547C16.125 15.0234 15.3594 14.2969 14.7812 13.375C14.2188 12.4531 13.9375 11.3984 13.9375 10.2109C13.9375 9.05469 14.1953 8 14.7109 7.04688C15.2266 6.09375 15.9375 5.32812 16.8438 4.75C17.75 4.15625 18.7812 3.85938 19.9375 3.85938ZM19.8672 6.46094C19.1328 6.46094 18.5156 6.6875 18.0156 7.14062C17.5156 7.59375 17.1719 8.20312 16.9844 8.96875H22.6562C22.5938 8.125 22.2812 7.5 21.7188 7.09375C21.1562 6.67188 20.5391 6.46094 19.8672 6.46094ZM32.0547 3.85938C32.7891 3.85938 33.4688 3.96875 34.0938 4.1875C34.7188 4.40625 35.2031 4.65625 35.5469 4.9375V7.5625C35.1719 7.3125 34.7109 7.07031 34.1641 6.83594C33.6328 6.60156 33.0781 6.48438 32.5 6.48438C31.9375 6.48438 31.4922 6.60938 31.1641 6.85938C30.8359 7.10938 30.6719 7.40625 30.6719 7.75C30.6719 8 30.7656 8.23438 30.9531 8.45312C31.1406 8.65625 31.5 8.83594 32.0312 8.99219L33.3672 9.4375C35.1641 9.96875 36.0625 11.0078 36.0625 12.5547C36.0625 13.2891 35.8516 13.9453 35.4297 14.5234C35.0234 15.0859 34.4688 15.5312 33.7656 15.8594C33.0781 16.1875 32.3125 16.3516 31.4688 16.3516C30.6719 16.3516 29.8984 16.2266 29.1484 15.9766C28.3984 15.7266 27.8281 15.4531 27.4375 15.1562V12.5547C27.7344 12.7578 28.0938 12.9531 28.5156 13.1406C28.9375 13.3281 29.375 13.4844 29.8281 13.6094C30.2812 13.7188 30.6953 13.7734 31.0703 13.7734C31.6641 13.7734 32.1172 13.6719 32.4297 13.4688C32.7578 13.25 32.9219 12.9453 32.9219 12.5547C32.9219 12.2578 32.7891 12.0234 32.5234 11.8516C32.2578 11.6797 31.8672 11.5078 31.3516 11.3359L29.8984 10.8203C28.9922 10.5234 28.3672 10.1016 28.0234 9.55469C27.6797 9.00781 27.5078 8.35938 27.5078 7.60938C27.5078 6.85938 27.6953 6.21094 28.0703 5.66406C28.4609 5.10156 29 4.66406 29.6875 4.35156C30.375 4.02344 31.1641 3.85938 32.0547 3.85938ZM42.4141 3.85938C43.1484 3.85938 43.8281 3.96875 44.4531 4.1875C45.0781 4.40625 45.5625 4.65625 45.9062 4.9375V7.5625C45.5312 7.3125 45.0703 7.07031 44.5234 6.83594C43.9922 6.60156 43.4375 6.48438 42.8594 6.48438C42.2969 6.48438 41.8516 6.60938 41.5234 6.85938C41.1953 7.10938 41.0312 7.40625 41.0312 7.75C41.0312 8 41.125 8.23438 41.3125 8.45312C41.5 8.65625 41.8594 8.83594 42.3906 8.99219L43.7266 9.4375C45.5234 9.96875 46.4219 11.0078 46.4219 12.5547C46.4219 13.2891 46.2109 13.9453 45.7891 14.5234C45.3828 15.0859 44.8281 15.5312 44.125 15.8594C43.4375 16.1875 42.6719 16.3516 41.8281 16.3516C41.0312 16.3516 40.2578 16.2266 39.5078 15.9766C38.7578 15.7266 38.1875 15.4531 37.7969 15.1562V12.5547C38.0938 12.7578 38.4531 12.9531 38.875 13.1406C39.2969 13.3281 39.7344 13.4844 40.1875 13.6094C40.6406 13.7188 41.0547 13.7734 41.4297 13.7734C42.0234 13.7734 42.4766 13.6719 42.7891 13.4688C43.1172 13.25 43.2812 12.9453 43.2812 12.5547C43.2812 12.2578 43.1484 12.0234 42.8828 11.8516C42.6172 11.6797 42.2266 11.5078 41.7109 11.3359L40.2578 10.8203C39.3516 10.5234 38.7266 10.1016 38.3828 9.55469C38.0391 9.00781 37.8672 8.35938 37.8672 7.60938C37.8672 6.85938 38.0547 6.21094 38.4297 5.66406C38.8203 5.10156 39.3594 4.66406 40.0469 4.35156C40.7344 4.02344 41.5234 3.85938 42.4141 3.85938ZM54.4609 3.85938C55.6172 3.85938 56.6719 4.14062 57.625 4.70312C58.5781 5.25 59.3438 6 59.9219 6.95312C60.5156 7.89062 60.8125 8.94531 60.8125 10.1172C60.8125 11.2891 60.5156 12.3438 59.9219 13.2812C59.3438 14.2188 58.5781 14.9688 57.625 15.5312C56.6719 16.0781 55.6172 16.3516 54.4609 16.3516C53.3203 16.3516 52.2656 16.0781 51.2969 15.5312C50.3438 14.9688 49.5781 14.2188 49 13.2812C48.4219 12.3438 48.1328 11.2891 48.1328 10.1172C48.1328 8.94531 48.4219 7.89062 49 6.95312C49.5781 6 50.3438 5.25 51.2969 4.70312C52.2656 4.14062 53.3203 3.85938 54.4609 3.85938ZM54.4609 6.74219C53.8984 6.74219 53.375 6.875 52.8906 7.14062C52.4062 7.40625 52.0156 7.78906 51.7188 8.28906C51.4375 8.78906 51.2969 9.39844 51.2969 10.1172C51.2969 10.8359 51.4375 11.4453 51.7188 11.9453C52.0156 12.4453 52.4062 12.8281 52.8906 13.0938C53.375 13.3438 53.8984 13.4688 54.4609 13.4688C55.0234 13.4688 55.5469 13.3438 56.0312 13.0938C56.5156 12.8281 56.9062 12.4453 57.2031 11.9453C57.5 11.4453 57.6484 10.8359 57.6484 10.1172C57.6484 9.39844 57.5 8.78906 57.2031 8.28906C56.9062 7.78906 56.5156 7.40625 56.0312 7.14062C55.5469 6.875 55.0234 6.74219 54.4609 6.74219ZM66.6016 4.16406V5.85156C66.9609 5.36719 67.4453 4.91406 68.0547 4.49219C68.6797 4.07031 69.3906 3.85938 70.1875 3.85938C71.3906 3.85938 72.3984 4.26562 73.2109 5.07812C74.0234 5.89062 74.4297 7.10938 74.4297 8.73438V16H71.4531L71.4297 9.13281C71.4297 8.33594 71.2344 7.74219 70.8438 7.35156C70.4688 6.96094 69.9453 6.76562 69.2734 6.76562C68.7422 6.76562 68.2422 6.9375 67.7734 7.28125C67.3203 7.625 66.9297 8.03125 66.6016 8.5V16H63.625V4.16406H66.6016Z" fill="#171100"/>
<path d="M79.2578 12.6719C79.7734 12.6719 80.2109 12.8594 80.5703 13.2344C80.9453 13.5938 81.1328 14.0312 81.1328 14.5469C81.1328 15.0625 80.9453 15.5078 80.5703 15.8828C80.2109 16.2422 79.7734 16.4219 79.2578 16.4219C78.7422 16.4219 78.2969 16.2422 77.9219 15.8828C77.5625 15.5078 77.3828 15.0625 77.3828 14.5469C77.3828 14.0312 77.5625 13.5938 77.9219 13.2344C78.2969 12.8594 78.7422 12.6719 79.2578 12.6719Z" fill="#FFB900"/>
</svg>
