<svg width="24" height="24" viewBox="0 0 24 24" fill="none" xmlns="http://www.w3.org/2000/svg">
<path d="M0.75 8.25V21H23.25V8.25H0.75ZM10.3286 16.7569C10.3956 16.8307 10.4472 16.9171 10.4804 17.0111C10.5136 17.1051 10.5277 17.2048 10.5219 17.3043C10.5161 17.4038 10.4906 17.5012 10.4467 17.5907C10.4029 17.6802 10.3417 17.7601 10.2666 17.8257C10.1915 17.8913 10.1041 17.9412 10.0095 17.9726C9.91491 18.004 9.81499 18.0163 9.7156 18.0086C9.61622 18.001 9.51935 17.9736 9.43067 17.9281C9.34199 17.8825 9.26327 17.8198 9.19913 17.7435L6.1425 14.2448L9.19988 10.7573C9.26397 10.6805 9.34276 10.6174 9.4316 10.5716C9.52044 10.5258 9.61755 10.4982 9.71721 10.4904C9.81687 10.4827 9.91708 10.4949 10.0119 10.5264C10.1068 10.558 10.1944 10.6081 10.2696 10.674C10.3448 10.7399 10.4061 10.8201 10.4498 10.91C10.4935 10.9999 10.5189 11.0976 10.5243 11.1974C10.5297 11.2972 10.5151 11.3971 10.4814 11.4912C10.4477 11.5853 10.3955 11.6717 10.3279 11.7454L8.13525 14.2463L10.3286 16.7569ZM14.8286 17.7435C14.7645 17.8198 14.6858 17.8825 14.5971 17.9281C14.5084 17.9736 14.4115 18.001 14.3121 18.0086C14.2128 18.0163 14.1128 18.004 14.0182 17.9726C13.9236 17.9412 13.8362 17.8913 13.7612 17.8257C13.6861 17.7601 13.6248 17.6802 13.581 17.5907C13.5372 17.5012 13.5116 17.4038 13.5058 17.3043C13.5001 17.2048 13.5142 17.1051 13.5474 17.0111C13.5805 16.9171 13.6321 16.8307 13.6991 16.7569L15.8925 14.2463L13.6999 11.7439C13.6323 11.6702 13.5801 11.5838 13.5463 11.4897C13.5126 11.3956 13.498 11.2957 13.5035 11.1959C13.5089 11.0961 13.5342 10.9984 13.5779 10.9085C13.6217 10.8186 13.683 10.7384 13.7581 10.6725C13.8333 10.6066 13.9209 10.5565 14.0158 10.5249C14.1107 10.4934 14.2109 10.4812 14.3105 10.4889C14.4102 10.4967 14.5073 10.5243 14.5962 10.5701C14.685 10.6159 14.7638 10.679 14.8279 10.7557L17.8853 14.2432L14.8286 17.7435Z" fill="#A13FB9"/>
<path d="M0.75 3V6.75H23.25V3H0.75ZM3 5.625C2.85166 5.625 2.70666 5.58101 2.58332 5.4986C2.45999 5.41619 2.36386 5.29906 2.30709 5.16201C2.25032 5.02497 2.23547 4.87417 2.26441 4.72868C2.29335 4.5832 2.36478 4.44956 2.46967 4.34467C2.57456 4.23978 2.7082 4.16835 2.85368 4.13941C2.99917 4.11047 3.14997 4.12532 3.28701 4.18209C3.42406 4.23886 3.54119 4.33499 3.6236 4.45832C3.70601 4.58166 3.75 4.72666 3.75 4.875C3.75 5.07391 3.67098 5.26468 3.53033 5.40533C3.38968 5.54598 3.19891 5.625 3 5.625ZM5.25 5.625C5.10166 5.625 4.95666 5.58101 4.83332 5.4986C4.70999 5.41619 4.61386 5.29906 4.55709 5.16201C4.50032 5.02497 4.48547 4.87417 4.51441 4.72868C4.54335 4.5832 4.61478 4.44956 4.71967 4.34467C4.82456 4.23978 4.9582 4.16835 5.10368 4.13941C5.24917 4.11047 5.39997 4.12532 5.53701 4.18209C5.67406 4.23886 5.79119 4.33499 5.8736 4.45832C5.95601 4.58166 6 4.72666 6 4.875C6 5.07391 5.92098 5.26468 5.78033 5.40533C5.63968 5.54598 5.44891 5.625 5.25 5.625ZM7.5 5.625C7.35166 5.625 7.20666 5.58101 7.08332 5.4986C6.95999 5.41619 6.86386 5.29906 6.80709 5.16201C6.75032 5.02497 6.73547 4.87417 6.76441 4.72868C6.79335 4.5832 6.86478 4.44956 6.96967 4.34467C7.07456 4.23978 7.2082 4.16835 7.35368 4.13941C7.49917 4.11047 7.64997 4.12532 7.78701 4.18209C7.92406 4.23886 8.04119 4.33499 8.1236 4.45832C8.20601 4.58166 8.25 4.72666 8.25 4.875C8.25 5.07391 8.17098 5.26468 8.03033 5.40533C7.88968 5.54598 7.69891 5.625 7.5 5.625Z" fill="#A13FB9"/>
</svg>
