<svg width="15" height="15" viewBox="0 0 15 15" fill="none" xmlns="http://www.w3.org/2000/svg">
<path d="M12.75 3.375C12.75 3.99632 12.2463 4.5 11.625 4.5C11.0037 4.5 10.5 3.99632 10.5 3.375C10.5 2.75368 11.0037 2.25 11.625 2.25C12.2463 2.25 12.75 2.75368 12.75 3.375Z" fill="white"/>
<path fill-rule="evenodd" clip-rule="evenodd" d="M7.5 11.25C9.57107 11.25 11.25 9.57107 11.25 7.5C11.25 5.42893 9.57107 3.75 7.5 3.75C5.42893 3.75 3.75 5.42893 3.75 7.5C3.75 9.57107 5.42893 11.25 7.5 11.25ZM7.5 9.75C8.74264 9.75 9.75 8.74264 9.75 7.5C9.75 6.25736 8.74264 5.25 7.5 5.25C6.25736 5.25 5.25 6.25736 5.25 7.5C5.25 8.74264 6.25736 9.75 7.5 9.75Z" fill="white"/>
<path fill-rule="evenodd" clip-rule="evenodd" d="M0 7.2C0 4.67976 0 3.41965 0.490471 2.45704C0.921901 1.61031 1.61031 0.921901 2.45704 0.490471C3.41965 0 4.67976 0 7.2 0H7.8C10.3202 0 11.5804 0 12.543 0.490471C13.3897 0.921901 14.0781 1.61031 14.5095 2.45704C15 3.41965 15 4.67976 15 7.2V7.8C15 10.3202 15 11.5804 14.5095 12.543C14.0781 13.3897 13.3897 14.0781 12.543 14.5095C11.5804 15 10.3202 15 7.8 15H7.2C4.67976 15 3.41965 15 2.45704 14.5095C1.61031 14.0781 0.921901 13.3897 0.490471 12.543C0 11.5804 0 10.3202 0 7.8V7.2ZM7.2 1.5H7.8C9.08487 1.5 9.95831 1.50117 10.6334 1.55633C11.2911 1.61006 11.6274 1.70745 11.862 1.82698C12.4265 2.1146 12.8854 2.57354 13.173 3.13803C13.2926 3.37263 13.3899 3.70893 13.4437 4.36656C13.4988 5.04169 13.5 5.91513 13.5 7.2V7.8C13.5 9.08487 13.4988 9.95831 13.4437 10.6334C13.3899 11.2911 13.2926 11.6274 13.173 11.862C12.8854 12.4265 12.4265 12.8854 11.862 13.173C11.6274 13.2926 11.2911 13.3899 10.6334 13.4437C9.95831 13.4988 9.08487 13.5 7.8 13.5H7.2C5.91513 13.5 5.04169 13.4988 4.36656 13.4437C3.70893 13.3899 3.37263 13.2926 3.13803 13.173C2.57354 12.8854 2.1146 12.4265 1.82698 11.862C1.70745 11.6274 1.61006 11.2911 1.55633 10.6334C1.50117 9.95831 1.5 9.08487 1.5 7.8V7.2C1.5 5.91513 1.50117 5.04169 1.55633 4.36656C1.61006 3.70893 1.70745 3.37263 1.82698 3.13803C2.1146 2.57354 2.57354 2.1146 3.13803 1.82698C3.37263 1.70745 3.70893 1.61006 4.36656 1.55633C5.04169 1.50117 5.91513 1.5 7.2 1.5Z" fill="white"/>
</svg>
