<svg width="24" height="24" viewBox="0 0 24 24" fill="none" xmlns="http://www.w3.org/2000/svg">
<path d="M0.75 8.25V21H23.25V8.25H0.75ZM12.75 18H5.25C5.05109 18 4.86032 17.921 4.71967 17.7803C4.57902 17.6397 4.5 17.4489 4.5 17.25C4.5 17.0511 4.57902 16.8603 4.71967 16.7197C4.86032 16.579 5.05109 16.5 5.25 16.5H12.75C12.9489 16.5 13.1397 16.579 13.2803 16.7197C13.421 16.8603 13.5 17.0511 13.5 17.25C13.5 17.4489 13.421 17.6397 13.2803 17.7803C13.1397 17.921 12.9489 18 12.75 18ZM18.75 15H5.25C5.05109 15 4.86032 14.921 4.71967 14.7803C4.57902 14.6397 4.5 14.4489 4.5 14.25C4.5 14.0511 4.57902 13.8603 4.71967 13.7197C4.86032 13.579 5.05109 13.5 5.25 13.5H18.75C18.9489 13.5 19.1397 13.579 19.2803 13.7197C19.421 13.8603 19.5 14.0511 19.5 14.25C19.5 14.4489 19.421 14.6397 19.2803 14.7803C19.1397 14.921 18.9489 15 18.75 15ZM18.75 12H5.25C5.05109 12 4.86032 11.921 4.71967 11.7803C4.57902 11.6397 4.5 11.4489 4.5 11.25C4.5 11.0511 4.57902 10.8603 4.71967 10.7197C4.86032 10.579 5.05109 10.5 5.25 10.5H18.75C18.9489 10.5 19.1397 10.579 19.2803 10.7197C19.421 10.8603 19.5 11.0511 19.5 11.25C19.5 11.4489 19.421 11.6397 19.2803 11.7803C19.1397 11.921 18.9489 12 18.75 12Z" fill="#FFB900"/>
<path d="M0.75 3V6.75H23.25V3H0.75ZM3 5.625C2.85166 5.625 2.70666 5.58101 2.58332 5.4986C2.45999 5.41619 2.36386 5.29906 2.30709 5.16201C2.25032 5.02497 2.23547 4.87417 2.26441 4.72868C2.29335 4.5832 2.36478 4.44956 2.46967 4.34467C2.57456 4.23978 2.7082 4.16835 2.85368 4.13941C2.99917 4.11047 3.14997 4.12532 3.28701 4.18209C3.42406 4.23886 3.54119 4.33499 3.6236 4.45832C3.70601 4.58166 3.75 4.72666 3.75 4.875C3.75 5.07391 3.67098 5.26468 3.53033 5.40533C3.38968 5.54598 3.19891 5.625 3 5.625ZM5.25 5.625C5.10166 5.625 4.95666 5.58101 4.83332 5.4986C4.70999 5.41619 4.61386 5.29906 4.55709 5.16201C4.50032 5.02497 4.48547 4.87417 4.51441 4.72868C4.54335 4.5832 4.61478 4.44956 4.71967 4.34467C4.82456 4.23978 4.9582 4.16835 5.10368 4.13941C5.24917 4.11047 5.39997 4.12532 5.53701 4.18209C5.67406 4.23886 5.79119 4.33499 5.8736 4.45832C5.95601 4.58166 6 4.72666 6 4.875C6 5.07391 5.92098 5.26468 5.78033 5.40533C5.63968 5.54598 5.44891 5.625 5.25 5.625ZM7.5 5.625C7.35166 5.625 7.20666 5.58101 7.08332 5.4986C6.95999 5.41619 6.86386 5.29906 6.80709 5.16201C6.75032 5.02497 6.73547 4.87417 6.76441 4.72868C6.79335 4.5832 6.86478 4.44956 6.96967 4.34467C7.07456 4.23978 7.2082 4.16835 7.35368 4.13941C7.49917 4.11047 7.64997 4.12532 7.78701 4.18209C7.92406 4.23886 8.04119 4.33499 8.1236 4.45832C8.20601 4.58166 8.25 4.72666 8.25 4.875C8.25 5.07391 8.17098 5.26468 8.03033 5.40533C7.88968 5.54598 7.69891 5.625 7.5 5.625Z" fill="#FFB900"/>
</svg>
