<svg width="24" height="20" viewBox="0 0 24 20" fill="none" xmlns="http://www.w3.org/2000/svg">
<path d="M21 5.875V0.625C17.698 2.94934 13.7862 4.25325 9.75 4.375H6.75V11.875C6.75 14.1625 6.75 17.65 10.9875 19.3375H11.25C11.431 19.3448 11.6085 19.2863 11.7497 19.1729C11.8909 19.0595 11.9864 18.8989 12.0184 18.7206C12.0504 18.5423 12.0168 18.3585 11.9238 18.2031C11.8308 18.0476 11.6847 17.9311 11.5125 17.875C8.25 16.6 8.25 14.0875 8.25 11.875H9.75C13.8052 11.8857 17.7494 13.2005 21 15.625V10.375C21.5967 10.375 22.169 10.1379 22.591 9.71599C23.0129 9.29403 23.25 8.72174 23.25 8.125C23.25 7.52826 23.0129 6.95597 22.591 6.53401C22.169 6.11205 21.5967 5.875 21 5.875V5.875ZM0.75 6.625V9.625C0.75 10.2217 0.987053 10.794 1.40901 11.216C1.83097 11.6379 2.40326 11.875 3 11.875H5.25V4.375H3C2.40326 4.375 1.83097 4.61205 1.40901 5.03401C0.987053 5.45597 0.75 6.02826 0.75 6.625V6.625Z" fill="#5C50E4"/>
</svg>
