<svg width="18" height="15" viewBox="0 0 18 15" fill="none" xmlns="http://www.w3.org/2000/svg">
<path d="M5.64991 15C3.57026 15 1.63168 14.3864 0 13.3276C1.38535 13.4185 3.83019 13.2007 5.35087 11.7292C3.06326 11.6227 2.0316 9.8428 1.89703 9.08215C2.0914 9.15822 3.01841 9.24949 3.54172 9.03651C0.91022 8.36714 0.506525 6.02434 0.596235 5.30933C1.08964 5.65923 1.92694 5.78093 2.25587 5.75051C-0.196205 3.97059 0.685945 1.2931 1.11954 0.71501C2.87924 3.18826 5.51649 4.57733 8.7791 4.65459C8.71759 4.38089 8.6851 4.09593 8.6851 3.80325C8.6851 1.70277 10.3586 0 12.423 0C13.5016 0 14.4735 0.46484 15.1558 1.20837C15.8766 1.03703 16.9613 0.635914 17.4916 0.289047C17.2243 1.26268 16.3922 2.07488 15.8888 2.37592C15.893 2.38616 15.8847 2.36563 15.8888 2.37592C16.331 2.30807 17.5274 2.07481 18 1.74949C17.7663 2.29647 16.884 3.20591 16.16 3.71506C16.2947 9.74221 11.7492 15 5.64991 15Z" fill="white"/>
</svg>
